<svg xmlns="http://www.w3.org/2000/svg" xmlns:xlink="http://www.w3.org/1999/xlink" width="500" zoomAndPan="magnify" viewBox="0 0 375 374.999991" height="500" preserveAspectRatio="xMidYMid meet" version="1.0"><defs><g/><clipPath id="51dc2a2d69"><path d="M 144 170 L 155.800781 170 L 155.800781 180 L 144 180 Z M 144 170 " clip-rule="nonzero"/></clipPath><clipPath id="ab473242aa"><path d="M 71 163.601562 L 131 163.601562 L 131 206 L 71 206 Z M 71 163.601562 " clip-rule="nonzero"/></clipPath><clipPath id="3fe0428e9e"><path d="M 69.550781 206 L 72 206 L 72 208.601562 L 69.550781 208.601562 Z M 69.550781 206 " clip-rule="nonzero"/></clipPath><clipPath id="e6d183196b"><path d="M 208 156 L 217 156 L 217 169 L 208 169 Z M 208 156 " clip-rule="nonzero"/></clipPath><clipPath id="3b8295b789"><path d="M 286.234375 167.300781 L 202.0625 186.117188 L 192.246094 142.203125 L 276.417969 123.382812 Z M 286.234375 167.300781 " clip-rule="nonzero"/></clipPath><clipPath id="db9bff5ace"><path d="M 286.234375 167.300781 L 202.0625 186.117188 L 192.246094 142.203125 L 276.417969 123.382812 Z M 286.234375 167.300781 " clip-rule="nonzero"/></clipPath><clipPath id="dc729ebafb"><path d="M 286.234375 167.300781 L 202.0625 186.117188 L 192.246094 142.203125 L 276.417969 123.382812 Z M 286.234375 167.300781 " clip-rule="nonzero"/></clipPath><clipPath id="b26ffd6614"><path d="M 200 168 L 211 168 L 211 178 L 200 178 Z M 200 168 " clip-rule="nonzero"/></clipPath><clipPath id="65995b9072"><path d="M 286.234375 167.300781 L 202.0625 186.117188 L 192.246094 142.203125 L 276.417969 123.382812 Z M 286.234375 167.300781 " clip-rule="nonzero"/></clipPath><clipPath id="42a80ae6f1"><path d="M 286.234375 167.300781 L 202.0625 186.117188 L 192.246094 142.203125 L 276.417969 123.382812 Z M 286.234375 167.300781 " clip-rule="nonzero"/></clipPath><clipPath id="c22dea2ec2"><path d="M 286.234375 167.300781 L 202.0625 186.117188 L 192.246094 142.203125 L 276.417969 123.382812 Z M 286.234375 167.300781 " clip-rule="nonzero"/></clipPath><clipPath id="db41174582"><path d="M 209 156 L 218 156 L 218 168 L 209 168 Z M 209 156 " clip-rule="nonzero"/></clipPath><clipPath id="4d5784fe64"><path d="M 286.234375 167.300781 L 202.0625 186.117188 L 192.246094 142.203125 L 276.417969 123.382812 Z M 286.234375 167.300781 " clip-rule="nonzero"/></clipPath><clipPath id="d36edfc4f2"><path d="M 286.234375 167.300781 L 202.0625 186.117188 L 192.246094 142.203125 L 276.417969 123.382812 Z M 286.234375 167.300781 " clip-rule="nonzero"/></clipPath><clipPath id="840f17ba99"><path d="M 286.234375 167.300781 L 202.0625 186.117188 L 192.246094 142.203125 L 276.417969 123.382812 Z M 286.234375 167.300781 " clip-rule="nonzero"/></clipPath><clipPath id="8ae87ee186"><path d="M 201 168 L 211 168 L 211 178 L 201 178 Z M 201 168 " clip-rule="nonzero"/></clipPath><clipPath id="32d0824794"><path d="M 286.234375 167.300781 L 202.0625 186.117188 L 192.246094 142.203125 L 276.417969 123.382812 Z M 286.234375 167.300781 " clip-rule="nonzero"/></clipPath><clipPath id="3f6ace9377"><path d="M 286.234375 167.300781 L 202.0625 186.117188 L 192.246094 142.203125 L 276.417969 123.382812 Z M 286.234375 167.300781 " clip-rule="nonzero"/></clipPath><clipPath id="60f160eff6"><path d="M 286.234375 167.300781 L 202.0625 186.117188 L 192.246094 142.203125 L 276.417969 123.382812 Z M 286.234375 167.300781 " clip-rule="nonzero"/></clipPath><clipPath id="95e42dda50"><path d="M 209 167 L 220 167 L 220 175 L 209 175 Z M 209 167 " clip-rule="nonzero"/></clipPath><clipPath id="0abee4712f"><path d="M 286.234375 167.300781 L 202.0625 186.117188 L 192.246094 142.203125 L 276.417969 123.382812 Z M 286.234375 167.300781 " clip-rule="nonzero"/></clipPath><clipPath id="c0d4b28de3"><path d="M 286.234375 167.300781 L 202.0625 186.117188 L 192.246094 142.203125 L 276.417969 123.382812 Z M 286.234375 167.300781 " clip-rule="nonzero"/></clipPath><clipPath id="60485536d3"><path d="M 286.234375 167.300781 L 202.0625 186.117188 L 192.246094 142.203125 L 276.417969 123.382812 Z M 286.234375 167.300781 " clip-rule="nonzero"/></clipPath><clipPath id="711215b0e1"><path d="M 205 165 L 210 165 L 210 169 L 205 169 Z M 205 165 " clip-rule="nonzero"/></clipPath><clipPath id="f011da409c"><path d="M 286.234375 167.300781 L 202.0625 186.117188 L 192.246094 142.203125 L 276.417969 123.382812 Z M 286.234375 167.300781 " clip-rule="nonzero"/></clipPath><clipPath id="696a00dc44"><path d="M 286.234375 167.300781 L 202.0625 186.117188 L 192.246094 142.203125 L 276.417969 123.382812 Z M 286.234375 167.300781 " clip-rule="nonzero"/></clipPath><clipPath id="3e20e8f4ed"><path d="M 286.234375 167.300781 L 202.0625 186.117188 L 192.246094 142.203125 L 276.417969 123.382812 Z M 286.234375 167.300781 " clip-rule="nonzero"/></clipPath><clipPath id="685c04d6e9"><path d="M 202 166 L 206 166 L 206 169 L 202 169 Z M 202 166 " clip-rule="nonzero"/></clipPath><clipPath id="a451b449fc"><path d="M 286.234375 167.300781 L 202.0625 186.117188 L 192.246094 142.203125 L 276.417969 123.382812 Z M 286.234375 167.300781 " clip-rule="nonzero"/></clipPath><clipPath id="52d8a72b80"><path d="M 286.234375 167.300781 L 202.0625 186.117188 L 192.246094 142.203125 L 276.417969 123.382812 Z M 286.234375 167.300781 " clip-rule="nonzero"/></clipPath><clipPath id="95eadaee50"><path d="M 286.234375 167.300781 L 202.0625 186.117188 L 192.246094 142.203125 L 276.417969 123.382812 Z M 286.234375 167.300781 " clip-rule="nonzero"/></clipPath><clipPath id="f8daccc34f"><path d="M 205 162 L 207 162 L 207 166 L 205 166 Z M 205 162 " clip-rule="nonzero"/></clipPath><clipPath id="bb6aeb5000"><path d="M 286.234375 167.300781 L 202.0625 186.117188 L 192.246094 142.203125 L 276.417969 123.382812 Z M 286.234375 167.300781 " clip-rule="nonzero"/></clipPath><clipPath id="003ecef984"><path d="M 286.234375 167.300781 L 202.0625 186.117188 L 192.246094 142.203125 L 276.417969 123.382812 Z M 286.234375 167.300781 " clip-rule="nonzero"/></clipPath><clipPath id="73d32e8bf6"><path d="M 286.234375 167.300781 L 202.0625 186.117188 L 192.246094 142.203125 L 276.417969 123.382812 Z M 286.234375 167.300781 " clip-rule="nonzero"/></clipPath><clipPath id="500205d6a1"><path d="M 208 167 L 210 167 L 210 169 L 208 169 Z M 208 167 " clip-rule="nonzero"/></clipPath><clipPath id="13217a212f"><path d="M 286.234375 167.300781 L 202.0625 186.117188 L 192.246094 142.203125 L 276.417969 123.382812 Z M 286.234375 167.300781 " clip-rule="nonzero"/></clipPath><clipPath id="bc88ad3edf"><path d="M 286.234375 167.300781 L 202.0625 186.117188 L 192.246094 142.203125 L 276.417969 123.382812 Z M 286.234375 167.300781 " clip-rule="nonzero"/></clipPath><clipPath id="5d206a53e9"><path d="M 286.234375 167.300781 L 202.0625 186.117188 L 192.246094 142.203125 L 276.417969 123.382812 Z M 286.234375 167.300781 " clip-rule="nonzero"/></clipPath><clipPath id="af7442a9de"><path d="M 210 167 L 214 167 L 214 173 L 210 173 Z M 210 167 " clip-rule="nonzero"/></clipPath><clipPath id="a0aa060362"><path d="M 286.234375 167.300781 L 202.0625 186.117188 L 192.246094 142.203125 L 276.417969 123.382812 Z M 286.234375 167.300781 " clip-rule="nonzero"/></clipPath><clipPath id="e135431c0c"><path d="M 286.234375 167.300781 L 202.0625 186.117188 L 192.246094 142.203125 L 276.417969 123.382812 Z M 286.234375 167.300781 " clip-rule="nonzero"/></clipPath><clipPath id="72ccc7bf8c"><path d="M 286.234375 167.300781 L 202.0625 186.117188 L 192.246094 142.203125 L 276.417969 123.382812 Z M 286.234375 167.300781 " clip-rule="nonzero"/></clipPath><clipPath id="344cedd85a"><path d="M 215 170 L 219 170 L 219 175 L 215 175 Z M 215 170 " clip-rule="nonzero"/></clipPath><clipPath id="aad16fcf50"><path d="M 286.234375 167.300781 L 202.0625 186.117188 L 192.246094 142.203125 L 276.417969 123.382812 Z M 286.234375 167.300781 " clip-rule="nonzero"/></clipPath><clipPath id="4bdf301845"><path d="M 286.234375 167.300781 L 202.0625 186.117188 L 192.246094 142.203125 L 276.417969 123.382812 Z M 286.234375 167.300781 " clip-rule="nonzero"/></clipPath><clipPath id="3f57319b0e"><path d="M 286.234375 167.300781 L 202.0625 186.117188 L 192.246094 142.203125 L 276.417969 123.382812 Z M 286.234375 167.300781 " clip-rule="nonzero"/></clipPath><clipPath id="d6e6567e12"><path d="M 212 168 L 217 168 L 217 175 L 212 175 Z M 212 168 " clip-rule="nonzero"/></clipPath><clipPath id="6db757a50f"><path d="M 286.234375 167.300781 L 202.0625 186.117188 L 192.246094 142.203125 L 276.417969 123.382812 Z M 286.234375 167.300781 " clip-rule="nonzero"/></clipPath><clipPath id="f13ff5ac69"><path d="M 286.234375 167.300781 L 202.0625 186.117188 L 192.246094 142.203125 L 276.417969 123.382812 Z M 286.234375 167.300781 " clip-rule="nonzero"/></clipPath><clipPath id="fd26cde2f1"><path d="M 286.234375 167.300781 L 202.0625 186.117188 L 192.246094 142.203125 L 276.417969 123.382812 Z M 286.234375 167.300781 " clip-rule="nonzero"/></clipPath><clipPath id="e196addc6f"><path d="M 223 176 L 226 176 L 226 179 L 223 179 Z M 223 176 " clip-rule="nonzero"/></clipPath><clipPath id="e94c412fa3"><path d="M 286.234375 167.300781 L 202.0625 186.117188 L 192.246094 142.203125 L 276.417969 123.382812 Z M 286.234375 167.300781 " clip-rule="nonzero"/></clipPath><clipPath id="0819f2868c"><path d="M 286.234375 167.300781 L 202.0625 186.117188 L 192.246094 142.203125 L 276.417969 123.382812 Z M 286.234375 167.300781 " clip-rule="nonzero"/></clipPath><clipPath id="04e01653a3"><path d="M 286.234375 167.300781 L 202.0625 186.117188 L 192.246094 142.203125 L 276.417969 123.382812 Z M 286.234375 167.300781 " clip-rule="nonzero"/></clipPath><clipPath id="53ebbdbd0e"><path d="M 226 127 L 275 127 L 275 180 L 226 180 Z M 226 127 " clip-rule="nonzero"/></clipPath><clipPath id="1f4defdc1f"><path d="M 286.234375 167.300781 L 202.0625 186.117188 L 192.246094 142.203125 L 276.417969 123.382812 Z M 286.234375 167.300781 " clip-rule="nonzero"/></clipPath><clipPath id="60a5938a16"><path d="M 286.234375 167.300781 L 202.0625 186.117188 L 192.246094 142.203125 L 276.417969 123.382812 Z M 286.234375 167.300781 " clip-rule="nonzero"/></clipPath><clipPath id="4de157876d"><path d="M 286.234375 167.300781 L 202.0625 186.117188 L 192.246094 142.203125 L 276.417969 123.382812 Z M 286.234375 167.300781 " clip-rule="nonzero"/></clipPath><clipPath id="61b74bb49e"><path d="M 275 123 L 277 123 L 277 126 L 275 126 Z M 275 123 " clip-rule="nonzero"/></clipPath><clipPath id="51a8748b0f"><path d="M 286.234375 167.300781 L 202.0625 186.117188 L 192.246094 142.203125 L 276.417969 123.382812 Z M 286.234375 167.300781 " clip-rule="nonzero"/></clipPath><clipPath id="951a945b1c"><path d="M 286.234375 167.300781 L 202.0625 186.117188 L 192.246094 142.203125 L 276.417969 123.382812 Z M 286.234375 167.300781 " clip-rule="nonzero"/></clipPath><clipPath id="32d3353fbd"><path d="M 286.234375 167.300781 L 202.0625 186.117188 L 192.246094 142.203125 L 276.417969 123.382812 Z M 286.234375 167.300781 " clip-rule="nonzero"/></clipPath></defs><rect x="-37.5" width="450" fill="#ffffff" y="-37.499999" height="449.999989" fill-opacity="1"/><rect x="-37.5" width="450" fill="#ffffff" y="-37.499999" height="449.999989" fill-opacity="1"/><path fill="#fdb811" d="M 298.324219 227.957031 L 293.675781 242.59375 C 281.363281 271.371094 260.605469 291.773438 231.402344 303.804688 C 202.03125 315.777344 170.769531 316 137.613281 304.46875 C 106.332031 291.960938 83.730469 271.855469 69.808594 244.160156 C 65.367188 235.222656 62.179688 225.878906 60.25 216.128906 L 58.410156 201.367188 C 57.847656 191.378906 58.765625 181.316406 61.160156 171.175781 C 69.453125 140.285156 87.222656 117.1875 114.472656 101.878906 C 141.722656 86.574219 172.238281 82.550781 206.019531 89.808594 C 239.425781 98.636719 264.8125 116.042969 282.175781 142.03125 C 299.539062 168.019531 304.921875 196.660156 298.324219 227.957031 " fill-opacity="1" fill-rule="nonzero"/><path fill="#100f0d" d="M 144.371094 179.945312 L 144.085938 179.996094 L 144.089844 180.035156 C 144.125 180.234375 144.257812 181.132812 144.257812 182.304688 C 144.257812 183.570312 144.101562 185.148438 143.515625 186.507812 C 143.226562 187.183594 142.828125 187.808594 142.296875 188.316406 C 141.765625 188.824219 141.097656 189.222656 140.242188 189.453125 C 139.722656 189.59375 139.308594 189.65625 138.996094 189.652344 C 138.625 189.652344 138.414062 189.570312 138.304688 189.46875 C 138.246094 189.414062 138.207031 189.355469 138.175781 189.277344 C 138.144531 189.195312 138.128906 189.097656 138.128906 188.972656 C 138.125 188.527344 138.371094 187.820312 138.800781 187.023438 C 140.082031 184.625 142.890625 181.359375 144.355469 179.949219 L 143.972656 179.519531 C 143.972656 179.519531 143.867188 179.601562 143.683594 179.75 C 143.042969 180.273438 141.421875 181.582031 139.832031 182.757812 C 139.039062 183.34375 138.253906 183.898438 137.613281 184.296875 C 137.292969 184.5 137.007812 184.664062 136.777344 184.773438 C 136.664062 184.828125 136.566406 184.867188 136.488281 184.894531 C 136.410156 184.917969 136.351562 184.925781 136.335938 184.925781 L 136.332031 184.925781 L 136.316406 185.058594 L 136.414062 184.976562 C 136.378906 184.9375 136.335938 184.925781 136.332031 184.925781 L 136.316406 185.058594 L 136.414062 184.976562 L 136.296875 185.078125 L 136.445312 185.03125 L 136.414062 184.976562 L 136.296875 185.078125 L 136.445312 185.03125 L 136.378906 185.050781 L 136.449219 185.050781 L 136.445312 185.03125 L 136.378906 185.050781 L 136.449219 185.050781 L 136.449219 185.039062 C 136.480469 184.761719 136.679688 184.273438 137.035156 183.738281 C 137.566406 182.929688 138.445312 181.992188 139.59375 181.265625 C 140.746094 180.539062 142.164062 180.019531 143.792969 180.019531 C 143.910156 180.019531 144.023438 180.023438 144.140625 180.027344 L 144.15625 179.738281 L 143.957031 179.949219 L 144.171875 180.152344 L 144.371094 179.945312 L 144.085938 179.996094 L 144.371094 179.945312 L 144.570312 179.738281 L 144.355469 179.53125 L 144.277344 179.457031 L 144.171875 179.453125 C 144.042969 179.445312 143.917969 179.441406 143.792969 179.441406 C 141.449219 179.441406 139.519531 180.4375 138.160156 181.613281 C 137.476562 182.203125 136.9375 182.832031 136.550781 183.417969 C 136.164062 184.007812 135.929688 184.535156 135.875 184.972656 L 135.875 184.96875 L 135.871094 185.050781 C 135.871094 185.105469 135.878906 185.164062 135.902344 185.222656 C 135.929688 185.3125 136.007812 185.402344 136.09375 185.445312 C 136.179688 185.492188 136.261719 185.503906 136.335938 185.503906 C 136.464844 185.503906 136.582031 185.472656 136.714844 185.425781 C 136.957031 185.339844 137.246094 185.191406 137.578125 184.996094 C 138.730469 184.320312 140.410156 183.066406 141.816406 181.976562 C 143.21875 180.886719 144.339844 179.964844 144.339844 179.960938 L 144.15625 179.738281 L 143.953125 179.53125 C 142.949219 180.503906 141.363281 182.277344 140.019531 184.09375 C 139.347656 185 138.738281 185.914062 138.292969 186.75 C 137.847656 187.589844 137.554688 188.339844 137.550781 188.972656 C 137.550781 189.148438 137.574219 189.320312 137.632812 189.476562 C 137.71875 189.714844 137.894531 189.921875 138.132812 190.046875 C 138.371094 190.175781 138.65625 190.230469 138.996094 190.230469 C 139.382812 190.230469 139.839844 190.160156 140.390625 190.011719 C 141.335938 189.757812 142.097656 189.304688 142.699219 188.734375 C 143.597656 187.871094 144.128906 186.75 144.4375 185.605469 C 144.746094 184.460938 144.835938 183.289062 144.835938 182.304688 C 144.835938 180.917969 144.65625 179.90625 144.65625 179.894531 L 144.636719 179.800781 L 144.570312 179.738281 L 144.371094 179.945312 " fill-opacity="1" fill-rule="nonzero"/><g clip-path="url(#51dc2a2d69)"><path fill="#100f0d" d="M 144.972656 179.320312 L 144.9375 179.605469 C 144.945312 179.605469 145.515625 179.675781 146.390625 179.675781 C 147.59375 179.675781 149.363281 179.546875 151.019531 178.890625 C 151.84375 178.566406 152.644531 178.105469 153.320312 177.460938 C 153.996094 176.820312 154.542969 175.988281 154.867188 174.941406 C 155.074219 174.277344 155.171875 173.746094 155.175781 173.316406 C 155.171875 172.929688 155.09375 172.609375 154.890625 172.375 C 154.789062 172.257812 154.664062 172.171875 154.523438 172.117188 C 154.386719 172.0625 154.234375 172.042969 154.082031 172.042969 C 153.773438 172.042969 153.441406 172.128906 153.078125 172.269531 C 151.816406 172.769531 150.148438 173.984375 148.570312 175.308594 C 146.992188 176.632812 145.519531 178.0625 144.695312 178.988281 L 144.914062 179.179688 L 145.144531 179.351562 C 145.148438 179.347656 146.398438 177.640625 147.648438 175.777344 C 148.277344 174.84375 148.902344 173.871094 149.378906 173.042969 C 149.613281 172.632812 149.816406 172.253906 149.957031 171.933594 C 150.027344 171.773438 150.085938 171.625 150.128906 171.492188 C 150.167969 171.355469 150.195312 171.234375 150.199219 171.109375 C 150.195312 171.007812 150.179688 170.890625 150.09375 170.78125 C 150.050781 170.726562 149.988281 170.679688 149.925781 170.65625 C 149.863281 170.628906 149.800781 170.621094 149.742188 170.621094 C 149.707031 170.621094 149.671875 170.625 149.636719 170.628906 C 149.214844 170.703125 148.710938 170.949219 148.15625 171.339844 C 147.328125 171.929688 146.40625 172.851562 145.679688 174.054688 C 144.957031 175.253906 144.4375 176.734375 144.4375 178.417969 C 144.4375 178.65625 144.445312 178.894531 144.46875 179.140625 L 144.476562 179.25 L 144.839844 179.59375 L 144.9375 179.605469 L 144.972656 179.320312 L 145.171875 179.109375 L 144.957031 178.90625 L 144.757812 179.113281 L 145.042969 179.089844 C 145.027344 178.863281 145.015625 178.636719 145.015625 178.417969 C 145.015625 176.335938 145.875 174.578125 146.910156 173.3125 C 147.425781 172.679688 147.984375 172.171875 148.492188 171.808594 C 148.996094 171.449219 149.460938 171.242188 149.730469 171.199219 L 149.742188 171.199219 L 149.742188 171.101562 L 149.707031 171.1875 L 149.742188 171.199219 L 149.742188 171.101562 L 149.707031 171.1875 L 149.761719 171.046875 L 149.625 171.113281 C 149.632812 171.136719 149.671875 171.179688 149.707031 171.1875 L 149.761719 171.046875 L 149.625 171.113281 L 149.695312 171.082031 L 149.617188 171.09375 L 149.625 171.113281 L 149.695312 171.082031 L 149.617188 171.09375 L 149.617188 171.109375 C 149.617188 171.140625 149.605469 171.21875 149.574219 171.320312 C 149.457031 171.714844 149.082031 172.421875 148.601562 173.222656 C 147.875 174.433594 146.890625 175.882812 146.09375 177.027344 C 145.691406 177.597656 145.339844 178.09375 145.085938 178.445312 C 144.832031 178.800781 144.679688 179.007812 144.679688 179.007812 L 145.128906 179.371094 C 146.035156 178.347656 147.820312 176.640625 149.613281 175.199219 C 150.507812 174.480469 151.410156 173.824219 152.203125 173.355469 C 152.597656 173.121094 152.96875 172.933594 153.289062 172.808594 C 153.613281 172.683594 153.886719 172.617188 154.082031 172.621094 C 154.179688 172.621094 154.257812 172.632812 154.316406 172.65625 C 154.402344 172.691406 154.453125 172.734375 154.503906 172.832031 C 154.558594 172.929688 154.59375 173.085938 154.59375 173.316406 C 154.59375 173.652344 154.511719 174.140625 154.316406 174.773438 C 154.019531 175.726562 153.527344 176.460938 152.917969 177.042969 C 152.007812 177.914062 150.8125 178.433594 149.625 178.730469 C 148.4375 179.027344 147.257812 179.101562 146.390625 179.101562 C 145.96875 179.101562 145.621094 179.082031 145.378906 179.066406 C 145.257812 179.058594 145.164062 179.050781 145.101562 179.042969 L 145.03125 179.035156 L 145.007812 179.035156 L 144.972656 179.320312 L 145.171875 179.109375 L 144.972656 179.320312 " fill-opacity="1" fill-rule="nonzero"/></g><path fill="#211c1d" d="M 143.394531 180.03125 C 143.394531 180.03125 144.855469 188.332031 139.339844 189.820312 C 133.042969 191.515625 140.40625 182.503906 143.179688 179.828125 C 143.179688 179.828125 135.007812 186.5625 135.1875 185.09375 C 135.363281 183.625 138.460938 179.613281 143.179688 179.828125 L 143.394531 180.03125 " fill-opacity="1" fill-rule="nonzero"/><path fill="#211c1d" d="M 143.996094 179.40625 C 143.996094 179.40625 151.925781 180.394531 153.617188 174.945312 C 155.652344 168.363281 146.496094 176.386719 143.9375 179.265625 C 143.9375 179.265625 150.171875 170.761719 148.710938 171 C 147.246094 171.242188 143.367188 174.5 143.78125 179.203125 L 143.996094 179.40625 " fill-opacity="1" fill-rule="nonzero"/><path fill="#100f0d" d="M 142.957031 173.707031 L 142.714844 173.9375 C 143.105469 174.34375 143.535156 175 143.855469 175.71875 C 144.179688 176.4375 144.394531 177.222656 144.394531 177.863281 C 144.394531 178.109375 144.363281 178.332031 144.296875 178.527344 C 144.238281 178.71875 144.144531 178.878906 144.019531 179.011719 C 143.882812 179.152344 143.710938 179.257812 143.496094 179.328125 C 143.285156 179.398438 143.03125 179.433594 142.757812 179.433594 C 142.117188 179.433594 141.355469 179.246094 140.648438 178.957031 C 139.945312 178.667969 139.296875 178.28125 138.886719 177.921875 C 137.925781 177.078125 137.371094 176.085938 137.054688 175.140625 C 136.738281 174.195312 136.664062 173.292969 136.664062 172.660156 C 136.664062 172.378906 136.679688 172.152344 136.691406 171.996094 C 136.699219 171.917969 136.707031 171.859375 136.714844 171.820312 L 136.71875 171.761719 L 136.386719 171.707031 L 136.453125 172.039062 L 136.457031 172.039062 C 136.496094 172.03125 136.957031 171.949219 137.640625 171.949219 C 138.296875 171.949219 139.164062 172.023438 140.066406 172.3125 C 140.96875 172.601562 141.898438 173.097656 142.714844 173.9375 L 143.199219 173.472656 C 142.296875 172.539062 141.257812 171.988281 140.269531 171.671875 C 139.28125 171.359375 138.351562 171.277344 137.640625 171.277344 C 136.855469 171.277344 136.339844 171.375 136.324219 171.378906 L 136.09375 171.425781 L 136.058594 171.652344 C 136.054688 171.667969 135.992188 172.054688 135.992188 172.660156 C 135.992188 173.347656 136.070312 174.316406 136.417969 175.351562 C 136.761719 176.390625 137.378906 177.496094 138.445312 178.425781 C 138.933594 178.855469 139.628906 179.265625 140.394531 179.578125 C 141.160156 179.890625 141.992188 180.105469 142.757812 180.105469 C 143.089844 180.105469 143.410156 180.0625 143.710938 179.964844 C 144.007812 179.867188 144.285156 179.707031 144.503906 179.476562 C 144.710938 179.261719 144.851562 179.007812 144.941406 178.734375 C 145.027344 178.457031 145.066406 178.164062 145.066406 177.863281 C 145.0625 177.078125 144.820312 176.226562 144.46875 175.445312 C 144.117188 174.664062 143.664062 173.957031 143.199219 173.472656 L 142.957031 173.707031 " fill-opacity="1" fill-rule="nonzero"/><path fill="#100f0d" d="M 147.25 179.976562 L 147.082031 180.148438 C 147.25 180.308594 147.40625 180.546875 147.519531 180.8125 C 147.632812 181.078125 147.695312 181.367188 147.695312 181.628906 C 147.695312 181.914062 147.621094 182.148438 147.46875 182.304688 C 147.308594 182.472656 147.046875 182.5625 146.730469 182.5625 C 146.222656 182.566406 145.613281 182.320312 145.296875 182.011719 C 145.03125 181.757812 144.898438 181.421875 144.898438 181.078125 C 144.898438 180.757812 145.015625 180.4375 145.257812 180.1875 C 145.511719 179.921875 145.847656 179.789062 146.1875 179.789062 C 146.511719 179.789062 146.832031 179.90625 147.082031 180.148438 L 147.25 179.976562 L 147.414062 179.800781 C 147.070312 179.472656 146.628906 179.308594 146.1875 179.308594 C 145.722656 179.308594 145.257812 179.492188 144.910156 179.855469 C 144.582031 180.199219 144.417969 180.640625 144.417969 181.078125 C 144.417969 181.542969 144.601562 182.011719 144.960938 182.359375 C 145.398438 182.769531 146.082031 183.039062 146.730469 183.042969 C 147.128906 183.042969 147.527344 182.933594 147.816406 182.636719 C 148.078125 182.363281 148.175781 181.996094 148.175781 181.628906 C 148.175781 181.289062 148.097656 180.941406 147.960938 180.625 C 147.828125 180.308594 147.640625 180.019531 147.414062 179.800781 L 147.25 179.976562 " fill-opacity="1" fill-rule="nonzero"/><path fill="#100f0d" d="M 150.898438 180.9375 C 150.886719 180.953125 150.683594 181.167969 150.316406 181.378906 C 149.945312 181.589844 149.410156 181.792969 148.722656 181.792969 C 148.484375 181.792969 148.226562 181.769531 147.953125 181.710938 L 147.855469 182.183594 C 148.164062 182.246094 148.453125 182.273438 148.722656 182.273438 C 149.53125 182.273438 150.164062 182.023438 150.59375 181.773438 C 151.019531 181.523438 151.246094 181.269531 151.257812 181.257812 L 150.898438 180.9375 " fill-opacity="1" fill-rule="nonzero"/><path fill="#100f0d" d="M 146.894531 182.816406 C 146.976562 183.144531 147.011719 183.445312 147.011719 183.722656 C 147.011719 184.386719 146.816406 184.90625 146.621094 185.257812 C 146.527344 185.433594 146.429688 185.570312 146.359375 185.660156 C 146.324219 185.703125 146.292969 185.738281 146.273438 185.757812 L 146.253906 185.78125 L 146.25 185.785156 L 146.582031 186.128906 C 146.59375 186.117188 146.820312 185.898438 147.042969 185.492188 C 147.269531 185.082031 147.492188 184.484375 147.492188 183.722656 C 147.492188 183.410156 147.453125 183.0625 147.359375 182.695312 L 146.894531 182.816406 " fill-opacity="1" fill-rule="nonzero"/><path fill="#100f0d" d="M 144.984375 179.328125 C 145.203125 179.542969 145.246094 179.855469 145.074219 180.03125 C 144.902344 180.210938 144.585938 180.179688 144.367188 179.96875 C 144.148438 179.761719 144.105469 179.445312 144.273438 179.269531 C 144.445312 179.089844 144.761719 179.117188 144.984375 179.328125 " fill-opacity="1" fill-rule="nonzero"/><path fill="#100f0d" d="M 144.144531 175.363281 C 144.109375 175.371094 143.53125 175.5 142.777344 176.042969 C 142.027344 176.585938 141.105469 177.550781 140.390625 179.203125 L 141.007812 179.46875 C 141.679688 177.921875 142.515625 177.0625 143.175781 176.585938 C 143.503906 176.347656 143.789062 176.203125 143.988281 176.121094 C 144.085938 176.082031 144.164062 176.054688 144.214844 176.039062 L 144.269531 176.023438 L 144.28125 176.019531 L 144.273438 175.988281 L 144.28125 176.019531 L 144.273438 175.988281 L 144.28125 176.019531 L 144.144531 175.363281 " fill-opacity="1" fill-rule="nonzero"/><path fill="#100f0d" d="M 140.21875 171.609375 C 140.183594 171.617188 139.605469 171.742188 138.855469 172.289062 C 138.101562 172.832031 137.183594 173.792969 136.46875 175.449219 L 137.085938 175.714844 C 137.753906 174.164062 138.589844 173.308594 139.25 172.832031 C 139.578125 172.59375 139.863281 172.449219 140.0625 172.367188 C 140.160156 172.328125 140.238281 172.300781 140.289062 172.285156 L 140.34375 172.269531 L 140.355469 172.265625 L 140.347656 172.230469 L 140.355469 172.265625 L 140.347656 172.230469 L 140.355469 172.265625 L 140.21875 171.609375 " fill-opacity="1" fill-rule="nonzero"/><path fill="#100f0d" d="M 142.613281 172.976562 C 142.558594 172.988281 141.839844 173.148438 140.90625 173.824219 C 139.96875 174.5 138.828125 175.695312 137.945312 177.738281 L 138.871094 178.140625 C 139.691406 176.253906 140.703125 175.214844 141.496094 174.640625 C 141.894531 174.351562 142.238281 174.179688 142.476562 174.078125 C 142.59375 174.03125 142.6875 174 142.746094 173.980469 L 142.8125 173.964844 L 142.820312 173.960938 L 142.753906 173.652344 L 142.820312 173.960938 L 142.753906 173.652344 L 142.820312 173.960938 L 142.613281 172.976562 " fill-opacity="1" fill-rule="nonzero"/><path fill="#100f0d" d="M 133.050781 167.304688 C 132.742188 167.03125 132.414062 166.761719 132.066406 166.507812 C 131.925781 166.410156 131.734375 166.4375 131.632812 166.574219 C 131.53125 166.714844 131.5625 166.90625 131.699219 167.007812 C 132.03125 167.25 132.347656 167.503906 132.636719 167.765625 C 132.765625 167.878906 132.960938 167.867188 133.078125 167.742188 C 133.191406 167.613281 133.179688 167.417969 133.050781 167.304688 " fill-opacity="1" fill-rule="nonzero"/><g clip-path="url(#ab473242aa)"><path fill="#100f0d" d="M 129.914062 165.203125 C 129.171875 164.828125 128.390625 164.507812 127.585938 164.253906 C 127.421875 164.199219 127.25 164.289062 127.199219 164.453125 C 127.144531 164.613281 127.234375 164.789062 127.398438 164.839844 C 128.171875 165.085938 128.925781 165.394531 129.636719 165.753906 C 129.789062 165.832031 129.976562 165.769531 130.050781 165.617188 C 130.128906 165.464844 130.066406 165.277344 129.914062 165.203125 Z M 125.128906 163.695312 C 124.601562 163.625 124.074219 163.589844 123.546875 163.589844 C 123.230469 163.589844 122.914062 163.601562 122.597656 163.632812 C 122.429688 163.644531 122.304688 163.796875 122.316406 163.964844 C 122.332031 164.136719 122.484375 164.261719 122.652344 164.246094 C 122.949219 164.21875 123.246094 164.207031 123.546875 164.207031 C 124.042969 164.207031 124.546875 164.242188 125.046875 164.308594 C 125.21875 164.332031 125.375 164.210938 125.394531 164.042969 C 125.417969 163.875 125.296875 163.71875 125.128906 163.695312 Z M 120.117188 164.214844 C 119.332031 164.527344 118.597656 164.972656 117.9375 165.5625 C 117.8125 165.675781 117.800781 165.871094 117.914062 165.996094 C 118.027344 166.125 118.222656 166.136719 118.351562 166.019531 C 118.953125 165.484375 119.625 165.074219 120.347656 164.785156 C 120.507812 164.722656 120.582031 164.542969 120.519531 164.382812 C 120.457031 164.226562 120.273438 164.148438 120.117188 164.214844 Z M 116.355469 167.574219 C 115.945312 168.347656 115.683594 169.171875 115.554688 170 C 115.527344 170.167969 115.644531 170.328125 115.8125 170.355469 C 115.980469 170.378906 116.140625 170.265625 116.164062 170.097656 C 116.285156 169.328125 116.527344 168.574219 116.902344 167.867188 C 116.984375 167.714844 116.925781 167.527344 116.773438 167.445312 C 116.625 167.367188 116.4375 167.425781 116.355469 167.574219 Z M 115.535156 172.546875 C 115.65625 173.421875 115.902344 174.257812 116.253906 174.992188 C 116.328125 175.148438 116.511719 175.214844 116.667969 175.140625 C 116.820312 175.066406 116.886719 174.882812 116.8125 174.730469 C 116.492188 174.050781 116.261719 173.277344 116.148438 172.464844 C 116.125 172.292969 115.96875 172.175781 115.800781 172.199219 C 115.628906 172.222656 115.511719 172.378906 115.535156 172.546875 Z M 117.804688 177.058594 C 118.421875 177.5625 119.148438 177.867188 119.929688 177.867188 C 120.0625 177.867188 120.195312 177.859375 120.328125 177.839844 C 120.496094 177.820312 120.617188 177.664062 120.59375 177.496094 C 120.570312 177.324219 120.414062 177.207031 120.246094 177.230469 C 120.140625 177.242188 120.035156 177.25 119.929688 177.25 C 119.3125 177.25 118.730469 177.011719 118.195312 176.578125 C 118.0625 176.472656 117.867188 176.492188 117.761719 176.621094 C 117.652344 176.753906 117.671875 176.949219 117.804688 177.058594 Z M 122.636719 176.609375 L 122.644531 176.605469 C 122.96875 176.289062 123.210938 175.984375 123.375 175.679688 C 123.539062 175.375 123.621094 175.070312 123.621094 174.773438 C 123.621094 174.535156 123.566406 174.300781 123.464844 174.089844 C 123.390625 173.933594 123.203125 173.871094 123.050781 173.945312 C 122.894531 174.019531 122.832031 174.203125 122.90625 174.355469 C 122.96875 174.492188 123.003906 174.628906 123.003906 174.773438 C 123.003906 174.953125 122.953125 175.15625 122.828125 175.386719 C 122.703125 175.621094 122.503906 175.878906 122.214844 176.160156 L 122.207031 176.164062 C 122.085938 176.285156 122.082031 176.480469 122.199219 176.601562 C 122.320312 176.726562 122.515625 176.726562 122.636719 176.609375 Z M 121.335938 172.527344 C 120.613281 172.261719 119.773438 172.058594 118.882812 171.914062 C 118.714844 171.886719 118.554688 172.003906 118.527344 172.171875 C 118.5 172.339844 118.617188 172.5 118.785156 172.523438 C 119.644531 172.664062 120.449219 172.859375 121.117188 173.105469 C 121.277344 173.167969 121.457031 173.085938 121.515625 172.925781 C 121.574219 172.765625 121.496094 172.585938 121.335938 172.527344 Z M 116.386719 171.679688 C 116.148438 171.671875 115.914062 171.667969 115.679688 171.667969 C 115.058594 171.667969 114.449219 171.695312 113.878906 171.753906 C 113.707031 171.769531 113.585938 171.921875 113.601562 172.089844 C 113.621094 172.261719 113.769531 172.386719 113.941406 172.367188 C 114.488281 172.3125 115.078125 172.285156 115.679688 172.285156 C 115.90625 172.285156 116.136719 172.289062 116.367188 172.296875 C 116.535156 172.304688 116.679688 172.167969 116.6875 171.996094 C 116.691406 171.828125 116.558594 171.683594 116.386719 171.679688 Z M 111.386719 172.316406 L 111.347656 172.335938 C 110.566406 172.683594 109.867188 173.160156 109.253906 173.726562 C 109.128906 173.84375 109.121094 174.039062 109.234375 174.164062 C 109.351562 174.289062 109.546875 174.296875 109.675781 174.179688 C 110.246094 173.65625 110.882812 173.21875 111.601562 172.898438 L 111.632812 172.882812 C 111.789062 172.816406 111.863281 172.632812 111.792969 172.476562 C 111.726562 172.320312 111.542969 172.25 111.386719 172.316406 Z M 107.640625 175.6875 C 107.199219 176.386719 106.824219 177.144531 106.511719 177.941406 C 106.449219 178.097656 106.527344 178.277344 106.6875 178.339844 C 106.847656 178.402344 107.027344 178.324219 107.089844 178.164062 C 107.386719 177.402344 107.746094 176.679688 108.164062 176.015625 C 108.253906 175.871094 108.210938 175.683594 108.066406 175.589844 C 107.921875 175.5 107.730469 175.542969 107.640625 175.6875 Z M 105.777344 180.339844 C 105.589844 181.152344 105.453125 181.984375 105.367188 182.808594 C 105.347656 182.976562 105.46875 183.128906 105.640625 183.148438 C 105.808594 183.164062 105.964844 183.042969 105.980469 182.871094 C 106.066406 182.070312 106.199219 181.265625 106.378906 180.476562 C 106.417969 180.3125 106.316406 180.144531 106.148438 180.105469 C 105.980469 180.066406 105.816406 180.171875 105.777344 180.339844 Z M 105.246094 185.304688 C 105.253906 186.175781 105.320312 187.019531 105.429688 187.800781 C 105.457031 187.96875 105.613281 188.085938 105.78125 188.0625 C 105.949219 188.039062 106.066406 187.882812 106.042969 187.714844 C 105.9375 186.960938 105.875 186.144531 105.867188 185.296875 C 105.863281 185.128906 105.722656 184.988281 105.550781 184.992188 C 105.382812 184.992188 105.246094 185.132812 105.246094 185.304688 Z M 105.910156 190.242188 C 106.105469 191.113281 106.300781 191.90625 106.453125 192.640625 C 106.484375 192.808594 106.648438 192.914062 106.816406 192.882812 C 106.984375 192.847656 107.09375 192.683594 107.058594 192.519531 C 106.90625 191.761719 106.707031 190.972656 106.511719 190.105469 C 106.476562 189.941406 106.308594 189.835938 106.140625 189.875 C 105.976562 189.910156 105.871094 190.078125 105.910156 190.242188 Z M 106.726562 195.019531 C 106.710938 195.78125 106.578125 196.519531 106.25 197.296875 C 106.183594 197.457031 106.253906 197.636719 106.414062 197.703125 C 106.570312 197.769531 106.753906 197.695312 106.820312 197.539062 C 107.179688 196.683594 107.332031 195.855469 107.34375 195.027344 C 107.34375 194.855469 107.210938 194.714844 107.039062 194.710938 C 106.867188 194.710938 106.726562 194.847656 106.726562 195.019531 Z M 105.007812 199.320312 C 104.734375 199.664062 104.421875 200.019531 104.066406 200.390625 C 103.835938 200.636719 103.601562 200.867188 103.359375 201.09375 C 103.238281 201.210938 103.230469 201.40625 103.347656 201.53125 C 103.464844 201.65625 103.660156 201.660156 103.785156 201.542969 C 104.03125 201.3125 104.277344 201.070312 104.515625 200.820312 C 104.882812 200.4375 105.207031 200.066406 105.492188 199.703125 C 105.597656 199.570312 105.574219 199.378906 105.441406 199.273438 C 105.308594 199.164062 105.113281 199.1875 105.007812 199.320312 Z M 101.484375 202.621094 C 100.8125 203.09375 100.117188 203.5 99.402344 203.847656 C 99.25 203.921875 99.183594 204.105469 99.257812 204.257812 C 99.335938 204.414062 99.519531 204.476562 99.675781 204.402344 C 100.417969 204.042969 101.140625 203.617188 101.839844 203.128906 C 101.980469 203.03125 102.011719 202.835938 101.914062 202.699219 C 101.816406 202.558594 101.625 202.523438 101.484375 202.621094 Z M 97.152344 204.710938 C 96.382812 204.933594 95.59375 205.089844 94.785156 205.175781 C 94.617188 205.195312 94.496094 205.347656 94.511719 205.519531 C 94.53125 205.6875 94.683594 205.808594 94.851562 205.789062 C 95.695312 205.699219 96.519531 205.535156 97.324219 205.304688 C 97.488281 205.257812 97.582031 205.085938 97.535156 204.921875 C 97.488281 204.757812 97.316406 204.664062 97.152344 204.710938 Z M 92.375 205.238281 C 91.585938 205.191406 90.785156 205.085938 89.976562 204.917969 C 89.808594 204.878906 89.644531 204.988281 89.609375 205.15625 C 89.574219 205.320312 89.679688 205.484375 89.847656 205.519531 C 90.6875 205.695312 91.519531 205.808594 92.339844 205.855469 C 92.507812 205.863281 92.65625 205.734375 92.664062 205.5625 C 92.675781 205.394531 92.542969 205.246094 92.375 205.238281 Z M 87.65625 204.246094 C 86.921875 203.964844 86.175781 203.625 85.417969 203.265625 C 85.261719 203.191406 85.078125 203.257812 85.003906 203.414062 C 84.929688 203.566406 84.996094 203.75 85.152344 203.824219 C 85.914062 204.183594 86.675781 204.53125 87.433594 204.824219 C 87.59375 204.882812 87.773438 204.804688 87.832031 204.644531 C 87.894531 204.484375 87.816406 204.304688 87.65625 204.246094 Z M 83.164062 202.226562 C 82.386719 201.894531 81.597656 201.59375 80.800781 201.382812 C 80.632812 201.339844 80.464844 201.4375 80.421875 201.601562 C 80.378906 201.765625 80.476562 201.9375 80.640625 201.980469 C 81.398438 202.179688 82.15625 202.46875 82.917969 202.796875 C 83.074219 202.863281 83.257812 202.792969 83.324219 202.636719 C 83.394531 202.476562 83.320312 202.296875 83.164062 202.226562 Z M 78.269531 201.0625 L 78.199219 201.066406 C 77.316406 201.105469 76.507812 201.324219 75.769531 201.667969 C 75.613281 201.738281 75.546875 201.921875 75.621094 202.078125 C 75.691406 202.234375 75.875 202.300781 76.03125 202.226562 C 76.703125 201.914062 77.429688 201.71875 78.226562 201.683594 L 78.292969 201.683594 C 78.464844 201.675781 78.597656 201.53125 78.589844 201.363281 C 78.585938 201.191406 78.441406 201.058594 78.269531 201.0625 Z M 73.664062 203.105469 C 73.046875 203.667969 72.488281 204.304688 71.972656 204.96875 C 71.867188 205.101562 71.890625 205.296875 72.027344 205.402344 C 72.160156 205.503906 72.355469 205.480469 72.460938 205.347656 C 72.960938 204.703125 73.5 204.089844 74.082031 203.5625 C 74.207031 203.445312 74.214844 203.25 74.101562 203.125 C 73.984375 203 73.789062 202.988281 73.664062 203.105469 " fill-opacity="1" fill-rule="nonzero"/></g><g clip-path="url(#3fe0428e9e)"><path fill="#100f0d" d="M 70.5 207.03125 C 70.269531 207.382812 70.039062 207.730469 69.816406 208.0625 C 69.722656 208.207031 69.761719 208.398438 69.90625 208.492188 C 70.046875 208.585938 70.238281 208.546875 70.332031 208.402344 C 70.558594 208.070312 70.785156 207.722656 71.015625 207.375 C 71.113281 207.234375 71.074219 207.042969 70.929688 206.945312 C 70.789062 206.851562 70.597656 206.890625 70.5 207.03125 " fill-opacity="1" fill-rule="nonzero"/></g><g clip-path="url(#e6d183196b)"><g clip-path="url(#3b8295b789)"><g clip-path="url(#db9bff5ace)"><g clip-path="url(#dc729ebafb)"><path fill="#100f0d" d="M 209.652344 167.675781 L 209.917969 167.5625 L 209.90625 167.523438 C 209.828125 167.335938 209.503906 166.488281 209.246094 165.34375 C 208.972656 164.113281 208.777344 162.535156 209.054688 161.085938 C 209.1875 160.359375 209.441406 159.664062 209.847656 159.054688 C 210.257812 158.441406 210.824219 157.90625 211.609375 157.496094 C 212.082031 157.246094 212.472656 157.09375 212.777344 157.027344 C 213.140625 156.945312 213.363281 156.980469 213.496094 157.058594 C 213.5625 157.09375 213.613281 157.144531 213.664062 157.214844 C 213.707031 157.289062 213.746094 157.382812 213.773438 157.503906 C 213.875 157.9375 213.789062 158.679688 213.542969 159.550781 C 212.816406 162.171875 210.785156 165.972656 209.664062 167.667969 L 210.132812 168.003906 C 210.136719 168.003906 210.214844 167.898438 210.363281 167.714844 C 210.875 167.0625 212.171875 165.433594 213.46875 163.941406 C 214.113281 163.195312 214.757812 162.484375 215.296875 161.953125 C 215.566406 161.683594 215.808594 161.460938 216.007812 161.304688 C 216.109375 161.230469 216.195312 161.167969 216.265625 161.125 C 216.335938 161.082031 216.390625 161.0625 216.40625 161.058594 L 216.410156 161.058594 L 216.394531 160.925781 L 216.320312 161.027344 C 216.359375 161.058594 216.40625 161.0625 216.410156 161.058594 L 216.394531 160.925781 L 216.320312 161.027344 L 216.410156 160.90625 L 216.277344 160.980469 L 216.320312 161.027344 L 216.410156 160.90625 L 216.277344 160.980469 L 216.335938 160.949219 L 216.269531 160.964844 L 216.277344 160.980469 L 216.335938 160.949219 L 216.269531 160.964844 L 216.269531 160.972656 C 216.300781 161.253906 216.214844 161.773438 215.984375 162.375 C 215.640625 163.277344 214.988281 164.382812 214.023438 165.34375 C 213.058594 166.304688 211.789062 167.117188 210.199219 167.476562 C 210.085938 167.5 209.972656 167.523438 209.855469 167.542969 L 209.90625 167.828125 L 210.054688 167.582031 L 209.800781 167.425781 L 209.652344 167.675781 L 209.917969 167.5625 L 209.652344 167.675781 L 209.5 167.921875 L 209.753906 168.074219 L 209.847656 168.132812 L 209.957031 168.113281 C 210.082031 168.089844 210.203125 168.066406 210.324219 168.039062 C 212.609375 167.527344 214.277344 166.132812 215.347656 164.691406 C 215.886719 163.96875 216.273438 163.234375 216.523438 162.578125 C 216.773438 161.921875 216.886719 161.351562 216.84375 160.914062 L 216.847656 160.917969 L 216.832031 160.835938 C 216.820312 160.785156 216.800781 160.730469 216.765625 160.675781 C 216.714844 160.59375 216.625 160.523438 216.53125 160.5 C 216.4375 160.472656 216.351562 160.480469 216.28125 160.496094 C 216.152344 160.527344 216.046875 160.582031 215.929688 160.65625 C 215.710938 160.792969 215.460938 161 215.179688 161.261719 C 214.203125 162.175781 212.835938 163.765625 211.703125 165.132812 C 210.570312 166.503906 209.679688 167.648438 209.679688 167.652344 L 209.90625 167.828125 L 210.148438 167.984375 C 210.917969 166.816406 212.078125 164.742188 212.992188 162.675781 C 213.449219 161.644531 213.84375 160.617188 214.097656 159.707031 C 214.351562 158.789062 214.472656 157.996094 214.339844 157.375 C 214.300781 157.203125 214.238281 157.042969 214.148438 156.902344 C 214.011719 156.6875 213.792969 156.523438 213.535156 156.453125 C 213.277344 156.378906 212.984375 156.390625 212.652344 156.464844 C 212.277344 156.546875 211.84375 156.71875 211.339844 156.984375 C 210.472656 157.4375 209.828125 158.042969 209.367188 158.734375 C 208.675781 159.769531 208.402344 160.980469 208.351562 162.164062 C 208.300781 163.351562 208.46875 164.511719 208.683594 165.472656 C 208.988281 166.828125 209.382812 167.773438 209.386719 167.785156 L 209.421875 167.871094 L 209.5 167.921875 L 209.652344 167.675781 " fill-opacity="1" fill-rule="nonzero"/></g></g></g></g><g clip-path="url(#b26ffd6614)"><g clip-path="url(#65995b9072)"><g clip-path="url(#42a80ae6f1)"><g clip-path="url(#c22dea2ec2)"><path fill="#100f0d" d="M 209.203125 168.417969 L 209.175781 168.128906 C 209.164062 168.128906 208.589844 168.1875 207.738281 168.375 C 206.566406 168.636719 204.867188 169.152344 203.394531 170.152344 C 202.660156 170.652344 201.980469 171.273438 201.460938 172.050781 C 200.941406 172.824219 200.585938 173.753906 200.5 174.847656 C 200.445312 175.542969 200.460938 176.082031 200.554688 176.5 C 200.640625 176.875 200.789062 177.171875 201.035156 177.359375 C 201.160156 177.449219 201.304688 177.507812 201.453125 177.527344 C 201.597656 177.550781 201.75 177.539062 201.898438 177.507812 C 202.199219 177.4375 202.503906 177.28125 202.828125 177.0625 C 203.953125 176.300781 205.3125 174.753906 206.566406 173.113281 C 207.816406 171.480469 208.941406 169.765625 209.542969 168.679688 L 209.289062 168.539062 L 209.023438 168.421875 C 209.023438 168.425781 208.175781 170.363281 207.363281 172.457031 C 206.953125 173.507812 206.554688 174.59375 206.269531 175.503906 C 206.128906 175.957031 206.015625 176.367188 205.949219 176.710938 C 205.914062 176.882812 205.886719 177.039062 205.878906 177.179688 C 205.867188 177.324219 205.867188 177.445312 205.894531 177.570312 C 205.917969 177.667969 205.957031 177.777344 206.066406 177.867188 C 206.121094 177.910156 206.191406 177.941406 206.257812 177.953125 C 206.324219 177.960938 206.386719 177.957031 206.445312 177.945312 C 206.480469 177.9375 206.511719 177.925781 206.542969 177.914062 C 206.941406 177.75 207.378906 177.402344 207.835938 176.898438 C 208.515625 176.144531 209.214844 175.039062 209.660156 173.710938 C 210.101562 172.378906 210.289062 170.820312 209.921875 169.179688 C 209.867188 168.949219 209.808594 168.714844 209.730469 168.480469 L 209.699219 168.378906 L 209.269531 168.117188 L 209.175781 168.128906 L 209.203125 168.417969 L 209.050781 168.664062 L 209.308594 168.816406 L 209.457031 168.570312 L 209.179688 168.65625 C 209.25 168.875 209.308594 169.089844 209.355469 169.304688 C 209.8125 171.335938 209.355469 173.238281 208.621094 174.699219 C 208.253906 175.429688 207.820312 176.050781 207.40625 176.511719 C 206.992188 176.972656 206.585938 177.277344 206.328125 177.378906 L 206.320312 177.382812 L 206.339844 177.476562 L 206.355469 177.382812 L 206.320312 177.382812 L 206.339844 177.476562 L 206.355469 177.382812 L 206.332031 177.535156 L 206.449219 177.4375 C 206.4375 177.417969 206.390625 177.386719 206.355469 177.382812 L 206.332031 177.535156 L 206.449219 177.4375 L 206.390625 177.488281 L 206.460938 177.457031 L 206.449219 177.4375 L 206.390625 177.488281 L 206.460938 177.457031 L 206.457031 177.445312 C 206.453125 177.414062 206.445312 177.332031 206.453125 177.226562 C 206.484375 176.816406 206.695312 176.042969 206.992188 175.15625 C 207.4375 173.816406 208.078125 172.191406 208.609375 170.898438 C 208.875 170.253906 209.109375 169.691406 209.28125 169.292969 C 209.453125 168.890625 209.554688 168.65625 209.554688 168.65625 L 209.039062 168.398438 C 208.375 169.597656 207.007812 171.652344 205.570312 173.449219 C 204.851562 174.347656 204.117188 175.183594 203.445312 175.8125 C 203.109375 176.128906 202.792969 176.390625 202.503906 176.585938 C 202.21875 176.777344 201.964844 176.902344 201.773438 176.941406 C 201.675781 176.964844 201.597656 176.964844 201.539062 176.957031 C 201.445312 176.941406 201.382812 176.910156 201.3125 176.828125 C 201.242188 176.746094 201.167969 176.597656 201.121094 176.375 C 201.046875 176.046875 201.023438 175.554688 201.074219 174.890625 C 201.15625 173.898438 201.472656 173.070312 201.941406 172.371094 C 202.644531 171.320312 203.695312 170.554688 204.789062 170.007812 C 205.882812 169.457031 207.019531 169.128906 207.867188 168.9375 C 208.277344 168.847656 208.621094 168.789062 208.859375 168.753906 C 208.976562 168.734375 209.070312 168.722656 209.136719 168.714844 L 209.207031 168.707031 L 209.230469 168.703125 L 209.203125 168.417969 L 209.050781 168.664062 L 209.203125 168.417969 " fill-opacity="1" fill-rule="nonzero"/></g></g></g></g><g clip-path="url(#db41174582)"><g clip-path="url(#4d5784fe64)"><g clip-path="url(#d36edfc4f2)"><g clip-path="url(#840f17ba99)"><path fill="#211c1d" d="M 210.585938 167.375 C 210.585938 167.375 207.347656 159.59375 212.40625 156.941406 C 218.183594 153.910156 212.960938 164.3125 210.839844 167.53125 C 210.839844 167.53125 217.34375 159.175781 217.492188 160.648438 C 217.636719 162.121094 215.492188 166.710938 210.839844 167.53125 L 210.585938 167.375 " fill-opacity="1" fill-rule="nonzero"/></g></g></g></g><g clip-path="url(#8ae87ee186)"><g clip-path="url(#32d0824794)"><g clip-path="url(#3f6ace9377)"><g clip-path="url(#60f160eff6)"><path fill="#211c1d" d="M 210.136719 168.117188 C 210.136719 168.117188 202.179688 168.882812 201.71875 174.570312 C 201.167969 181.4375 208.355469 171.609375 210.222656 168.242188 C 210.222656 168.242188 205.992188 177.902344 207.367188 177.347656 C 208.746094 176.796875 211.820312 172.769531 210.386719 168.273438 L 210.136719 168.117188 " fill-opacity="1" fill-rule="nonzero"/></g></g></g></g><g clip-path="url(#95e42dda50)"><g clip-path="url(#0abee4712f)"><g clip-path="url(#c0d4b28de3)"><g clip-path="url(#60485536d3)"><path fill="#100f0d" d="M 212.394531 173.453125 L 212.578125 173.175781 C 212.109375 172.867188 211.542969 172.316406 211.074219 171.683594 C 210.601562 171.054688 210.222656 170.335938 210.085938 169.710938 C 210.03125 169.472656 210.011719 169.246094 210.03125 169.042969 C 210.050781 168.84375 210.105469 168.664062 210.199219 168.507812 C 210.300781 168.339844 210.445312 168.203125 210.636719 168.085938 C 210.832031 167.96875 211.070312 167.878906 211.339844 167.820312 C 211.960938 167.679688 212.75 167.699219 213.5 167.828125 C 214.25 167.953125 214.964844 168.191406 215.445312 168.453125 C 216.566406 169.066406 217.324219 169.914062 217.839844 170.765625 C 218.355469 171.621094 218.625 172.484375 218.761719 173.101562 C 218.824219 173.375 218.859375 173.601562 218.878906 173.757812 C 218.886719 173.835938 218.894531 173.894531 218.898438 173.933594 L 218.902344 173.988281 L 219.238281 173.972656 L 219.105469 173.664062 L 219.101562 173.664062 C 219.0625 173.679688 218.632812 173.859375 217.964844 174.011719 C 217.324219 174.152344 216.460938 174.269531 215.519531 174.183594 C 214.574219 174.097656 213.558594 173.820312 212.578125 173.175781 L 212.207031 173.734375 C 213.292969 174.449219 214.425781 174.761719 215.457031 174.851562 C 216.492188 174.945312 217.417969 174.820312 218.113281 174.664062 C 218.878906 174.496094 219.359375 174.285156 219.371094 174.277344 L 219.585938 174.183594 L 219.574219 173.953125 C 219.574219 173.9375 219.550781 173.546875 219.417969 172.957031 C 219.269531 172.285156 218.980469 171.355469 218.414062 170.421875 C 217.851562 169.484375 217.007812 168.539062 215.765625 167.863281 C 215.195312 167.554688 214.425781 167.304688 213.613281 167.164062 C 212.796875 167.027344 211.9375 167 211.191406 167.164062 C 210.867188 167.238281 210.5625 167.347656 210.292969 167.511719 C 210.023438 167.671875 209.789062 167.886719 209.625 168.164062 C 209.46875 168.414062 209.386719 168.695312 209.359375 168.980469 C 209.335938 169.269531 209.363281 169.5625 209.429688 169.859375 C 209.601562 170.621094 210.023438 171.398438 210.535156 172.085938 C 211.050781 172.773438 211.648438 173.363281 212.207031 173.734375 L 212.394531 173.453125 " fill-opacity="1" fill-rule="nonzero"/></g></g></g></g><g clip-path="url(#711215b0e1)"><g clip-path="url(#f011da409c)"><g clip-path="url(#696a00dc44)"><g clip-path="url(#3e20e8f4ed)"><path fill="#100f0d" d="M 206.835938 168.273438 L 206.960938 168.066406 C 206.761719 167.949219 206.558594 167.75 206.390625 167.515625 C 206.222656 167.28125 206.097656 167.011719 206.039062 166.757812 C 205.976562 166.480469 206 166.234375 206.113281 166.046875 C 206.234375 165.847656 206.46875 165.703125 206.777344 165.632812 C 207.273438 165.519531 207.921875 165.625 208.300781 165.859375 C 208.613281 166.046875 208.816406 166.351562 208.890625 166.683594 C 208.960938 166.996094 208.914062 167.335938 208.734375 167.632812 C 208.542969 167.945312 208.242188 168.148438 207.910156 168.222656 C 207.597656 168.292969 207.257812 168.246094 206.960938 168.066406 L 206.835938 168.273438 L 206.710938 168.476562 C 207.117188 168.722656 207.585938 168.789062 208.015625 168.691406 C 208.46875 168.589844 208.886719 168.308594 209.144531 167.878906 C 209.390625 167.472656 209.457031 167.003906 209.359375 166.578125 C 209.257812 166.125 208.976562 165.707031 208.546875 165.449219 C 208.03125 165.140625 207.304688 165.027344 206.675781 165.164062 C 206.285156 165.253906 205.917969 165.449219 205.703125 165.800781 C 205.507812 166.125 205.488281 166.503906 205.570312 166.863281 C 205.644531 167.191406 205.796875 167.511719 206 167.792969 C 206.199219 168.074219 206.441406 168.316406 206.710938 168.476562 L 206.835938 168.273438 " fill-opacity="1" fill-rule="nonzero"/></g></g></g></g><g clip-path="url(#685c04d6e9)"><g clip-path="url(#a451b449fc)"><g clip-path="url(#52d8a72b80)"><g clip-path="url(#95eadaee50)"><path fill="#100f0d" d="M 203.0625 168.128906 C 203.074219 168.113281 203.222656 167.855469 203.539062 167.570312 C 203.855469 167.285156 204.328125 166.972656 205.003906 166.820312 C 205.234375 166.769531 205.488281 166.734375 205.769531 166.730469 L 205.761719 166.253906 C 205.449219 166.257812 205.160156 166.292969 204.898438 166.351562 C 204.105469 166.527344 203.542969 166.910156 203.179688 167.25 C 202.816406 167.585938 202.652344 167.878906 202.644531 167.898438 L 203.0625 168.128906 " fill-opacity="1" fill-rule="nonzero"/></g></g></g></g><g clip-path="url(#f8daccc34f)"><g clip-path="url(#bb6aeb5000)"><g clip-path="url(#003ecef984)"><g clip-path="url(#73d32e8bf6)"><path fill="#100f0d" d="M 206.5625 165.425781 C 206.410156 165.121094 206.308594 164.832031 206.25 164.5625 C 206.105469 163.914062 206.179688 163.367188 206.292969 162.980469 C 206.351562 162.785156 206.414062 162.632812 206.464844 162.53125 C 206.488281 162.480469 206.511719 162.441406 206.527344 162.417969 L 206.542969 162.390625 L 206.546875 162.382812 L 206.144531 162.121094 C 206.132812 162.136719 205.964844 162.398438 205.832031 162.847656 C 205.703125 163.292969 205.613281 163.925781 205.78125 164.667969 C 205.847656 164.976562 205.960938 165.304688 206.132812 165.640625 L 206.5625 165.425781 " fill-opacity="1" fill-rule="nonzero"/></g></g></g></g><g clip-path="url(#500205d6a1)"><g clip-path="url(#13217a212f)"><g clip-path="url(#bc88ad3edf)"><g clip-path="url(#5d206a53e9)"><path fill="#100f0d" d="M 209.1875 168.410156 C 208.925781 168.25 208.816406 167.953125 208.945312 167.742188 C 209.074219 167.53125 209.386719 167.492188 209.652344 167.648438 C 209.910156 167.804688 210.019531 168.105469 209.894531 168.316406 C 209.765625 168.523438 209.449219 168.566406 209.1875 168.410156 " fill-opacity="1" fill-rule="nonzero"/></g></g></g></g><g clip-path="url(#af7442a9de)"><g clip-path="url(#a0aa060362)"><g clip-path="url(#e135431c0c)"><g clip-path="url(#72ccc7bf8c)"><path fill="#100f0d" d="M 210.871094 172.09375 C 210.90625 172.082031 211.441406 171.832031 212.058594 171.136719 C 212.671875 170.441406 213.359375 169.300781 213.695312 167.527344 L 213.035156 167.402344 C 212.71875 169.0625 212.089844 170.082031 211.550781 170.691406 C 211.285156 170.996094 211.035156 171.199219 210.859375 171.320312 C 210.769531 171.382812 210.703125 171.425781 210.65625 171.453125 L 210.605469 171.480469 L 210.59375 171.484375 L 210.609375 171.515625 L 210.59375 171.484375 L 210.609375 171.515625 L 210.59375 171.484375 L 210.871094 172.09375 " fill-opacity="1" fill-rule="nonzero"/></g></g></g></g><g clip-path="url(#344cedd85a)"><g clip-path="url(#aad16fcf50)"><g clip-path="url(#4bdf301845)"><g clip-path="url(#3f57319b0e)"><path fill="#100f0d" d="M 215.519531 174.902344 C 215.554688 174.886719 216.089844 174.640625 216.707031 173.945312 C 217.320312 173.25 218.007812 172.109375 218.347656 170.339844 L 217.683594 170.214844 C 217.371094 171.871094 216.742188 172.890625 216.203125 173.5 C 215.933594 173.804688 215.6875 174.007812 215.507812 174.128906 C 215.421875 174.191406 215.351562 174.234375 215.304688 174.261719 L 215.253906 174.285156 L 215.246094 174.292969 L 215.261719 174.324219 L 215.246094 174.292969 L 215.261719 174.324219 L 215.246094 174.292969 L 215.519531 174.902344 " fill-opacity="1" fill-rule="nonzero"/></g></g></g></g><g clip-path="url(#d6e6567e12)"><g clip-path="url(#6db757a50f)"><g clip-path="url(#f13ff5ac69)"><g clip-path="url(#fd26cde2f1)"><path fill="#100f0d" d="M 212.886719 174.09375 C 212.9375 174.070312 213.605469 173.757812 214.367188 172.890625 C 215.132812 172.027344 215.984375 170.609375 216.402344 168.425781 L 215.410156 168.238281 C 215.023438 170.257812 214.261719 171.488281 213.613281 172.226562 C 213.289062 172.59375 212.992188 172.835938 212.78125 172.984375 C 212.675781 173.058594 212.589844 173.109375 212.539062 173.140625 L 212.480469 173.171875 L 212.46875 173.175781 L 212.601562 173.464844 L 212.472656 173.175781 L 212.46875 173.175781 L 212.601562 173.464844 L 212.472656 173.175781 L 212.886719 174.09375 " fill-opacity="1" fill-rule="nonzero"/></g></g></g></g><g clip-path="url(#e196addc6f)"><g clip-path="url(#e94c412fa3)"><g clip-path="url(#0819f2868c)"><g clip-path="url(#04e01653a3)"><path fill="#100f0d" d="M 223.457031 177.539062 C 223.816406 177.742188 224.195312 177.929688 224.59375 178.101562 C 224.75 178.167969 224.933594 178.097656 225 177.941406 C 225.070312 177.785156 224.996094 177.605469 224.839844 177.535156 C 224.460938 177.371094 224.101562 177.191406 223.757812 177 C 223.609375 176.917969 223.421875 176.972656 223.335938 177.121094 C 223.253906 177.269531 223.308594 177.457031 223.457031 177.539062 " fill-opacity="1" fill-rule="nonzero"/></g></g></g></g><g clip-path="url(#53ebbdbd0e)"><g clip-path="url(#1f4defdc1f)"><g clip-path="url(#60a5938a16)"><g clip-path="url(#4de157876d)"><path fill="#100f0d" d="M 226.976562 178.910156 C 227.78125 179.109375 228.613281 179.253906 229.457031 179.328125 C 229.625 179.34375 229.777344 179.214844 229.789062 179.046875 C 229.804688 178.878906 229.679688 178.726562 229.511719 178.710938 C 228.703125 178.640625 227.902344 178.503906 227.125 178.308594 C 226.960938 178.269531 226.792969 178.367188 226.753906 178.535156 C 226.710938 178.699219 226.8125 178.867188 226.976562 178.910156 Z M 231.972656 179.335938 C 232.507812 179.289062 233.027344 179.207031 233.542969 179.09375 C 233.851562 179.023438 234.160156 178.941406 234.457031 178.84375 C 234.621094 178.792969 234.710938 178.617188 234.660156 178.457031 C 234.609375 178.292969 234.433594 178.203125 234.269531 178.257812 C 233.988281 178.347656 233.699219 178.425781 233.40625 178.492188 C 232.925781 178.597656 232.425781 178.671875 231.921875 178.71875 C 231.75 178.734375 231.625 178.882812 231.640625 179.054688 C 231.65625 179.222656 231.804688 179.347656 231.972656 179.335938 Z M 236.753906 177.734375 C 237.449219 177.257812 238.070312 176.664062 238.585938 175.945312 C 238.683594 175.804688 238.652344 175.613281 238.515625 175.515625 C 238.375 175.414062 238.179688 175.445312 238.082031 175.585938 C 237.609375 176.242188 237.046875 176.785156 236.402344 177.226562 C 236.261719 177.324219 236.226562 177.515625 236.324219 177.65625 C 236.421875 177.796875 236.613281 177.832031 236.753906 177.734375 Z M 239.6875 173.636719 C 239.921875 172.789062 239.996094 171.929688 239.945312 171.089844 C 239.933594 170.921875 239.785156 170.792969 239.617188 170.804688 C 239.445312 170.8125 239.316406 170.960938 239.324219 171.128906 C 239.375 171.90625 239.308594 172.695312 239.09375 173.46875 C 239.046875 173.636719 239.144531 173.804688 239.308594 173.851562 C 239.472656 173.894531 239.644531 173.800781 239.691406 173.636719 Z M 239.40625 168.601562 C 239.097656 167.773438 238.671875 167.015625 238.171875 166.371094 C 238.066406 166.238281 237.871094 166.214844 237.738281 166.320312 C 237.601562 166.421875 237.578125 166.617188 237.683594 166.75 C 238.144531 167.34375 238.539062 168.046875 238.828125 168.820312 C 238.886719 168.976562 239.066406 169.058594 239.226562 169 C 239.386719 168.941406 239.464844 168.761719 239.40625 168.601562 Z M 236.207031 164.695312 C 235.496094 164.339844 234.71875 164.199219 233.957031 164.371094 C 233.828125 164.398438 233.699219 164.433594 233.574219 164.480469 C 233.414062 164.539062 233.332031 164.71875 233.390625 164.878906 C 233.449219 165.039062 233.628906 165.121094 233.789062 165.0625 C 233.890625 165.023438 233.988281 164.996094 234.089844 164.972656 C 234.691406 164.839844 235.316406 164.941406 235.929688 165.25 C 236.082031 165.324219 236.269531 165.261719 236.34375 165.109375 C 236.421875 164.957031 236.359375 164.773438 236.207031 164.695312 Z M 231.585938 166.1875 L 231.582031 166.195312 C 231.335938 166.570312 231.164062 166.921875 231.074219 167.253906 C 230.980469 167.585938 230.964844 167.902344 231.027344 168.191406 C 231.082031 168.429688 231.1875 168.640625 231.332031 168.828125 C 231.4375 168.960938 231.632812 168.984375 231.765625 168.878906 C 231.902344 168.773438 231.925781 168.578125 231.820312 168.445312 C 231.726562 168.324219 231.664062 168.199219 231.632812 168.058594 C 231.59375 167.882812 231.597656 167.675781 231.667969 167.421875 C 231.738281 167.167969 231.878906 166.871094 232.101562 166.535156 L 232.105469 166.527344 C 232.199219 166.386719 232.160156 166.195312 232.015625 166.101562 C 231.875 166.007812 231.683594 166.046875 231.585938 166.1875 Z M 233.75 169.886719 C 234.515625 169.992188 235.378906 170.003906 236.277344 169.949219 C 236.449219 169.941406 236.578125 169.792969 236.566406 169.621094 C 236.558594 169.453125 236.410156 169.324219 236.238281 169.332031 C 235.371094 169.386719 234.542969 169.371094 233.835938 169.273438 C 233.667969 169.25 233.511719 169.371094 233.488281 169.539062 C 233.464844 169.707031 233.582031 169.863281 233.75 169.886719 Z M 238.765625 169.636719 C 238.996094 169.59375 239.230469 169.542969 239.457031 169.492188 C 240.066406 169.359375 240.652344 169.195312 241.195312 169.015625 C 241.359375 168.960938 241.445312 168.789062 241.390625 168.625 C 241.339844 168.464844 241.164062 168.375 241 168.429688 C 240.480469 168.601562 239.910156 168.757812 239.324219 168.890625 C 239.101562 168.941406 238.875 168.984375 238.652344 169.027344 C 238.480469 169.058594 238.371094 169.222656 238.402344 169.390625 C 238.433594 169.558594 238.597656 169.667969 238.765625 169.636719 Z M 243.503906 167.921875 L 243.542969 167.894531 C 244.226562 167.382812 244.804688 166.769531 245.28125 166.082031 C 245.375 165.941406 245.339844 165.75 245.203125 165.652344 C 245.0625 165.554688 244.867188 165.589844 244.769531 165.730469 C 244.328125 166.367188 243.796875 166.929688 243.171875 167.402344 L 243.140625 167.421875 C 243.003906 167.523438 242.972656 167.714844 243.074219 167.855469 C 243.171875 167.992188 243.367188 168.023438 243.503906 167.921875 Z M 246.425781 163.816406 C 246.707031 163.039062 246.90625 162.214844 247.035156 161.371094 C 247.0625 161.203125 246.945312 161.042969 246.777344 161.019531 C 246.609375 160.992188 246.449219 161.109375 246.425781 161.277344 C 246.300781 162.089844 246.109375 162.871094 245.84375 163.609375 C 245.785156 163.769531 245.871094 163.945312 246.03125 164.003906 C 246.191406 164.0625 246.371094 163.976562 246.425781 163.816406 Z M 247.230469 158.871094 C 247.234375 158.03125 247.1875 157.195312 247.09375 156.371094 C 247.074219 156.203125 246.917969 156.078125 246.75 156.097656 C 246.582031 156.121094 246.457031 156.273438 246.476562 156.441406 C 246.570312 157.242188 246.617188 158.054688 246.609375 158.867188 C 246.609375 159.035156 246.746094 159.175781 246.917969 159.175781 C 247.089844 159.179688 247.226562 159.042969 247.230469 158.871094 Z M 246.664062 153.910156 C 246.464844 153.058594 246.21875 152.25 245.941406 151.511719 C 245.878906 151.351562 245.699219 151.273438 245.539062 151.332031 C 245.378906 151.394531 245.300781 151.570312 245.359375 151.730469 C 245.628906 152.441406 245.867188 153.222656 246.0625 154.050781 C 246.097656 154.214844 246.265625 154.320312 246.433594 154.277344 C 246.597656 154.242188 246.703125 154.074219 246.664062 153.910156 Z M 244.941406 149.230469 C 244.558594 148.425781 244.195312 147.695312 243.886719 147.011719 C 243.816406 146.855469 243.632812 146.785156 243.480469 146.855469 C 243.320312 146.925781 243.253906 147.109375 243.320312 147.265625 C 243.636719 147.96875 244 148.695312 244.378906 149.496094 C 244.453125 149.652344 244.636719 149.71875 244.792969 149.644531 C 244.945312 149.570312 245.011719 149.386719 244.941406 149.230469 Z M 243.101562 144.75 C 242.949219 144.003906 242.917969 143.253906 243.070312 142.421875 C 243.101562 142.253906 242.988281 142.09375 242.820312 142.0625 C 242.652344 142.03125 242.492188 142.144531 242.460938 142.3125 C 242.292969 143.226562 242.328125 144.066406 242.496094 144.878906 C 242.53125 145.042969 242.695312 145.152344 242.863281 145.117188 C 243.03125 145.082031 243.136719 144.917969 243.101562 144.75 Z M 243.839844 140.175781 C 244.03125 139.78125 244.257812 139.367188 244.523438 138.925781 C 244.695312 138.640625 244.875 138.359375 245.058594 138.089844 C 245.15625 137.945312 245.117188 137.753906 244.976562 137.660156 C 244.835938 137.5625 244.644531 137.601562 244.546875 137.742188 C 244.355469 138.023438 244.171875 138.3125 243.992188 138.605469 C 243.71875 139.0625 243.480469 139.492188 243.28125 139.910156 C 243.207031 140.0625 243.273438 140.246094 243.425781 140.320312 C 243.578125 140.394531 243.765625 140.332031 243.839844 140.175781 Z M 246.558594 136.1875 C 247.109375 135.582031 247.699219 135.03125 248.320312 134.539062 C 248.453125 134.429688 248.476562 134.238281 248.371094 134.105469 C 248.265625 133.96875 248.070312 133.949219 247.933594 134.054688 C 247.289062 134.570312 246.675781 135.140625 246.101562 135.769531 C 245.984375 135.898438 245.992188 136.09375 246.121094 136.207031 C 246.246094 136.324219 246.441406 136.3125 246.558594 136.1875 Z M 250.332031 133.203125 C 251.03125 132.820312 251.769531 132.496094 252.535156 132.230469 C 252.699219 132.175781 252.785156 132 252.730469 131.839844 C 252.671875 131.679688 252.5 131.589844 252.335938 131.648438 C 251.535156 131.921875 250.765625 132.257812 250.03125 132.660156 C 249.882812 132.742188 249.828125 132.929688 249.910156 133.082031 C 249.992188 133.230469 250.179688 133.285156 250.332031 133.203125 Z M 254.878906 131.644531 C 255.65625 131.519531 256.460938 131.449219 257.289062 131.4375 C 257.457031 131.4375 257.597656 131.292969 257.59375 131.125 C 257.589844 130.953125 257.449219 130.816406 257.28125 130.820312 C 256.421875 130.832031 255.585938 130.902344 254.777344 131.035156 C 254.609375 131.066406 254.496094 131.222656 254.523438 131.390625 C 254.550781 131.558594 254.707031 131.675781 254.878906 131.644531 Z M 259.699219 131.585938 C 260.476562 131.699219 261.28125 131.871094 262.097656 132.050781 C 262.265625 132.089844 262.429688 131.984375 262.46875 131.820312 C 262.503906 131.652344 262.402344 131.488281 262.234375 131.449219 C 261.410156 131.265625 260.59375 131.089844 259.789062 130.972656 C 259.621094 130.949219 259.464844 131.066406 259.4375 131.234375 C 259.414062 131.402344 259.53125 131.5625 259.699219 131.585938 Z M 264.523438 132.574219 C 265.351562 132.730469 266.1875 132.851562 267.015625 132.882812 C 267.183594 132.890625 267.328125 132.757812 267.335938 132.589844 C 267.34375 132.417969 267.210938 132.273438 267.039062 132.265625 C 266.257812 132.234375 265.453125 132.121094 264.636719 131.964844 C 264.46875 131.933594 264.308594 132.046875 264.277344 132.210938 C 264.242188 132.378906 264.355469 132.542969 264.523438 132.574219 Z M 269.550781 132.640625 L 269.621094 132.625 C 270.472656 132.394531 271.214844 132.003906 271.863281 131.507812 C 271.996094 131.40625 272.023438 131.210938 271.917969 131.074219 C 271.8125 130.941406 271.621094 130.914062 271.484375 131.019531 C 270.894531 131.46875 270.230469 131.816406 269.457031 132.027344 L 269.394531 132.042969 C 269.230469 132.089844 269.132812 132.253906 269.175781 132.421875 C 269.21875 132.585938 269.386719 132.683594 269.550781 132.640625 Z M 273.601562 129.644531 C 274.082031 128.964844 274.488281 128.21875 274.847656 127.460938 C 274.921875 127.304688 274.855469 127.121094 274.699219 127.046875 C 274.546875 126.976562 274.359375 127.039062 274.289062 127.195312 C 273.9375 127.933594 273.546875 128.648438 273.097656 129.292969 C 273 129.429688 273.03125 129.625 273.171875 129.722656 C 273.3125 129.820312 273.503906 129.785156 273.601562 129.644531 " fill-opacity="1" fill-rule="nonzero"/></g></g></g></g><g clip-path="url(#61b74bb49e)"><g clip-path="url(#51a8748b0f)"><g clip-path="url(#951a945b1c)"><g clip-path="url(#32d3353fbd)"><path fill="#100f0d" d="M 275.832031 125.121094 C 275.984375 124.730469 276.128906 124.34375 276.273438 123.96875 C 276.335938 123.808594 276.257812 123.628906 276.09375 123.570312 C 275.9375 123.507812 275.757812 123.585938 275.695312 123.746094 C 275.550781 124.125 275.40625 124.507812 275.253906 124.902344 C 275.191406 125.0625 275.269531 125.238281 275.429688 125.300781 C 275.589844 125.363281 275.769531 125.28125 275.832031 125.121094 " fill-opacity="1" fill-rule="nonzero"/></g></g></g></g><g fill="#1e1e1e" fill-opacity="1"><g transform="translate(26.206821, 157.609854)"><g><path d="M 56.921875 -73.125 L 56.234375 -7.03125 L 52.625 -2.34375 L 56.03125 2.734375 L 40.609375 9.859375 L 29.96875 -0.296875 L 8.890625 0 L 2.4375 -3.703125 L 1.953125 -72.734375 L 4.984375 -77.609375 L 52.328125 -78.09375 Z M 36.3125 -60.328125 L 22.359375 -59.359375 L 22.9375 -16.59375 L 36.21875 -15.71875 Z M 36.3125 -60.328125 "/></g></g></g><g fill="#1e1e1e" fill-opacity="1"><g transform="translate(44.019436, 287.021112)"><g><path d="M 75.171875 -56.8125 L 82.625 -48.78125 L 81.90625 -9.46875 L 71.578125 -1.4375 L 2.875 0.28125 L 3.875 -114.1875 L 69.140625 -110.890625 L 77.46875 -100.28125 L 79.1875 -61.828125 Z M 51.640625 -67.859375 L 50.78125 -89.078125 L 31.421875 -92.09375 L 31.84375 -70.71875 Z M 54.796875 -46.484375 L 32.140625 -50.203125 L 31.984375 -23.09375 L 53.796875 -26.53125 Z M 54.796875 -46.484375 "/></g></g></g><g fill="#1e1e1e" fill-opacity="1"><g transform="translate(85.082013, 164.165147)"><g><path d="M 31.25 -59.859375 L 44.28125 -60.234375 L 43.515625 -5.640625 L 40.734375 -0.296875 L 7.375 -0.078125 L 2.40625 -2.9375 L 1.5 -60.46875 L 14.453125 -60.46875 L 17.3125 -57.828125 L 18.21875 -14.375 L 28.078125 -13.703125 L 28.53125 -57 Z M 31.25 -59.859375 "/></g></g></g><g fill="#1e1e1e" fill-opacity="1"><g transform="translate(125.904795, 265.738693)"><g><path d="M 46.65625 -21.421875 L 68.546875 -19.984375 L 69.75 -11.359375 L 63.53125 -0.84375 L 10.890625 -0.125 L 2.984375 -4.78125 L 2.390625 -62.328125 L 9.8125 -70.109375 L 61.609375 -69.03125 L 70.59375 -62.9375 L 68.4375 -30.03125 L 61.375 -25.25 L 28 -26.203125 L 27.640625 -18.1875 L 44.625 -17.109375 Z M 45.109375 -38.40625 L 44.390625 -50.484375 L 27.15625 -51.203125 L 27.28125 -39.953125 Z M 45.109375 -38.40625 "/></g></g></g><g fill="#1e1e1e" fill-opacity="1"><g transform="translate(131.461081, 148.052004)"><g><path d="M 1.796875 -0.1875 L 2.25 -52.5625 L 21.75 -52.5625 L 19.3125 -1.078125 Z M 16.890625 -54.359375 L 7.09375 -54.1875 L 2.609375 -57.234375 L 3.0625 -71.796875 L 20.03125 -71.796875 L 22.28125 -69.375 L 20.3125 -57.15625 Z M 16.890625 -54.359375 "/></g></g></g><g fill="#1e1e1e" fill-opacity="1"><g transform="translate(151.043095, 183.631058)"><g><path d="M 8.015625 -51.328125 L 56.46875 -50.375 L 56.46875 -32.1875 L 7.171875 -32.65625 Z M 8.015625 -51.328125 "/></g></g></g><g fill="#1e1e1e" fill-opacity="1"><g transform="translate(126.439434, 322.851674)"><g><path d="M 8.015625 -51.328125 L 56.46875 -50.375 L 56.46875 -32.1875 L 7.171875 -32.65625 Z M 8.015625 -51.328125 "/></g></g></g><g fill="#1e1e1e" fill-opacity="1"><g transform="translate(252.652488, 329.191281)"><g><path d="M 10.453125 -66.921875 L 73.625 -65.671875 L 73.625 -41.96875 L 9.359375 -42.59375 Z M 10.453125 -66.921875 "/></g></g></g><g fill="#1e1e1e" fill-opacity="1"><g transform="translate(197.466378, 285.869424)"><g><path d="M 58.984375 -21.65625 L 60.296875 -0.234375 L 2.390625 -0.234375 L 2.390625 -95.953125 L 58.390625 -94.15625 L 57.671875 -72.265625 L 26.921875 -72.625 L 26.921875 -60.65625 L 46.78125 -59.46875 L 46.78125 -38.640625 L 26.796875 -39.84375 L 26.6875 -23.453125 Z M 58.984375 -21.65625 "/></g></g></g><g fill="#1e1e1e" fill-opacity="1"><g transform="translate(259.407643, 256.833859)"><g><path d="M 86.15625 -22.5625 L 86.3125 -0.15625 L 7.78125 -0.921875 L 3.5 -5.484375 L 3.046875 -29.578125 L 43.15625 -61.3125 L 8.078125 -62.671875 L 3.8125 -65.875 L 3.96875 -89.359375 L 85.546875 -87.078125 L 85.40625 -56.265625 L 46.515625 -27.296875 L 79.453125 -27.90625 Z M 86.15625 -22.5625 "/></g></g></g><g fill="#1e1e1e" fill-opacity="1"><g transform="translate(156.115146, 127.484071)"><g><path d="M 51.5625 -13.5 L 51.65625 -0.09375 L 4.65625 -0.546875 L 2.09375 -3.28125 L 1.828125 -17.703125 L 25.828125 -36.6875 L 4.84375 -37.515625 L 2.28125 -39.421875 L 2.375 -53.484375 L 51.203125 -52.109375 L 51.109375 -33.671875 L 27.84375 -16.34375 L 47.546875 -16.703125 Z M 51.5625 -13.5 "/></g></g></g><g fill="#1e1e1e" fill-opacity="1"><g transform="translate(211.860679, 131.220146)"><g><path d="M 53.0625 -13.890625 L 53.15625 -0.09375 L 4.796875 -0.5625 L 2.15625 -3.375 L 1.875 -18.21875 L 26.578125 -37.75 L 4.984375 -38.59375 L 2.34375 -40.5625 L 2.4375 -55.03125 L 52.6875 -53.625 L 52.59375 -34.65625 L 28.640625 -16.8125 L 48.921875 -17.1875 Z M 53.0625 -13.890625 "/></g></g></g><g fill="#1e1e1e" fill-opacity="1"><g transform="translate(269.148121, 139.886244)"><g><path d="M 33.421875 -46.90625 L 46.828125 -47.46875 L 46.265625 15.984375 L 41.09375 20.5 L 5.890625 19.78125 L 1.9375 13.5625 L 2.421875 5.40625 L 4.203125 2.421875 L 17.28125 2.265625 L 18.8125 7.59375 L 30.109375 6.703125 L 29.875 -1.296875 L 7.59375 -0.15625 L 2.984375 -4.6875 L 1.609375 -47.546875 L 15.34375 -47.390625 L 18.171875 -45.125 L 18.65625 -14.6875 L 29.875 -15.34375 L 30.4375 -43.765625 Z M 33.421875 -46.90625 "/></g></g></g><g fill="#1e1e1e" fill-opacity="1"><g transform="translate(206.258487, 187.197966)"><g><path d="M 8.015625 -51.328125 L 56.46875 -50.375 L 56.46875 -32.1875 L 7.171875 -32.65625 Z M 8.015625 -51.328125 "/></g></g></g></svg>